<svg width="257" height="49" viewBox="0 0 257 49" fill="none" xmlns="http://www.w3.org/2000/svg">
<path d="M217.86 18.0563C225.86 16.0563 226.86 8.55636 231.36 3.55638C239.91 -5.94368 253.18 5.55627 247.86 15.0563C244.362 21.3025 259.36 21.5563 256.36 38.0563C253.36 54.5563 234.86 49.0563 231.36 42.5563C227.86 36.0563 222.36 41.5563 211.86 38.0563C201.36 34.5563 207.86 20.5563 217.86 18.0563Z" fill="#F4F4F4"/>
<path d="M246.141 33.6881H238.922C236.932 33.6881 235.313 35.3064 235.313 37.2968V39.2656C235.313 39.809 235.754 40.25 236.298 40.25H248.766C249.309 40.25 249.75 39.809 249.75 39.2656V37.2968C249.75 35.3064 248.132 33.6881 246.141 33.6881Z" fill="#4D4D4D"/>
<path d="M229.078 33.6881H221.859C219.868 33.6881 218.25 35.3064 218.25 37.2968V39.2656C218.25 39.809 218.691 40.25 219.234 40.25H231.702C232.246 40.25 232.687 39.809 232.687 39.2656V37.2968C232.687 35.3064 231.069 33.6881 229.078 33.6881Z" fill="#4D4D4D"/>
<path d="M242.531 31.0618C244.705 31.0618 246.468 29.2989 246.468 27.1243C246.468 24.9496 244.705 23.1868 242.531 23.1868C240.356 23.1868 238.593 24.9496 238.593 27.1243C238.593 29.2989 240.356 31.0618 242.531 31.0618Z" fill="#4D4D4D"/>
<path d="M225.469 31.0618C227.644 31.0618 229.407 29.2989 229.407 27.1243C229.407 24.9496 227.644 23.1868 225.469 23.1868C223.295 23.1868 221.532 24.9496 221.532 27.1243C221.532 29.2989 223.295 31.0618 225.469 31.0618Z" fill="#4D4D4D"/>
<path d="M236.677 22.1001V23.0451C236.677 23.8464 236.022 24.502 235.207 24.502H232.791C232.082 24.502 231.32 23.9763 231.32 22.8088V22.1001H236.677Z" fill="#F0A880"/>
<path d="M239.906 14.6188C239.906 16.3906 239.119 18.0444 237.741 19.1607C237.189 19.6076 236.835 20.1844 236.717 20.7888H231.297C231.204 20.1982 230.878 19.6469 230.338 19.2276C228.881 18.0857 228.054 16.367 228.094 14.5026C228.159 11.3782 230.771 8.79323 233.908 8.75385C235.496 8.71448 237.018 9.3307 238.16 10.4608C239.29 11.5613 239.906 13.0438 239.906 14.6188Z" fill="#F0A880"/>
<path d="M113.86 18.0563C121.86 16.0563 122.86 8.55636 127.36 3.55638C135.91 -5.94368 149.18 5.55627 143.86 15.0563C140.362 21.3025 155.36 21.5563 152.36 38.0563C149.36 54.5563 130.86 49.0563 127.36 42.5563C123.86 36.0563 118.36 41.5563 107.86 38.0563C97.3603 34.5563 103.86 20.5563 113.86 18.0563Z" fill="#F4F4F4"/>
<path d="M149.009 38.2829C149.007 38.2783 149.006 38.2737 149.004 38.269L147.59 33.9715V23.4476C147.59 21.722 146.186 20.3181 144.46 20.3181H135.325V25.4387C135.325 28.3147 132.985 30.6546 130.109 30.6546H129.369V35.6875C129.369 37.4131 130.773 38.817 132.499 38.817H143.116L145.848 40.6355C146.207 40.8786 146.614 40.9998 147.019 40.9998C147.454 40.9998 147.888 40.8606 148.261 40.5832C148.985 40.0461 149.278 39.1432 149.009 38.2829ZM141.908 34.577C141.369 34.7805 140.767 34.5083 140.564 33.9693L140.109 32.7656H136.934L136.474 33.9723C136.316 34.3884 135.919 34.6444 135.499 34.6444C135.376 34.6444 135.25 34.6224 135.128 34.5759C134.59 34.3708 134.319 33.7681 134.524 33.2297L137.397 25.687C137.4 25.6791 137.403 25.6711 137.406 25.6633C137.594 25.2045 138.036 24.9078 138.531 24.9073C139.03 24.9047 139.469 25.2027 139.657 25.6611C139.661 25.6706 139.665 25.68 139.669 25.6896L142.515 33.2326C142.719 33.7716 142.447 34.3735 141.908 34.577Z" fill="#F0A880"/>
<path d="M137.728 30.6794H139.322L138.529 28.5777L137.728 30.6794Z" fill="#F0A880"/>
<path d="M130.109 10H118.147C116.421 10 115.018 11.4039 115.018 13.1295V23.7232L113.603 28.0211C113.602 28.0257 113.6 28.0305 113.599 28.0351C113.329 28.8951 113.623 29.7978 114.346 30.3348C114.72 30.612 115.154 30.7513 115.588 30.7513C115.994 30.7513 116.4 30.6303 116.759 30.3872L119.492 28.5685H130.109C131.834 28.5685 133.238 27.1646 133.238 25.439V13.1296C133.238 11.4039 131.834 10 130.109 10ZM128.482 23.9186C128.278 24.1223 128.011 24.2241 127.744 24.2241C127.477 24.2241 127.21 24.1223 127.007 23.9186L126.55 23.4617C125.785 23.9625 124.872 24.255 123.892 24.255C121.209 24.255 119.026 22.0719 119.026 19.3887C119.026 16.7054 121.209 14.5224 123.892 14.5224C126.575 14.5224 128.758 16.7054 128.758 19.3887C128.758 20.3379 128.484 21.2238 128.012 21.9733L128.482 22.4432C128.889 22.8508 128.889 23.5112 128.482 23.9186Z" fill="#F0A880"/>
<path d="M123.892 16.6089C122.359 16.6089 121.112 17.856 121.112 19.3889C121.112 20.9217 122.359 22.1688 123.892 22.1688C124.292 22.1688 124.673 22.0829 125.018 21.9296L124.561 21.4726C124.153 21.0652 124.153 20.4047 124.561 19.9973C124.968 19.5899 125.628 19.5899 126.036 19.9973L126.469 20.43C126.599 20.1082 126.672 19.7569 126.672 19.3889C126.672 17.856 125.425 16.6089 123.892 16.6089Z" fill="#F0A880"/>
<path d="M11.8603 18.0563C19.8603 16.0563 20.8603 8.55636 25.3603 3.55638C33.9103 -5.94368 47.1802 5.55627 41.8603 15.0563C38.3624 21.3025 53.3603 21.5563 50.3603 38.0563C47.3603 54.5563 28.8603 49.0563 25.3603 42.5563C21.8603 36.0563 16.3603 41.5563 5.86026 38.0563C-4.63974 34.5563 1.86026 20.5563 11.8603 18.0563Z" fill="#F4F4F4"/>
<path d="M13.6355 25.0232C13.2829 25.0291 13 25.3177 13 25.6704V37.615C13 37.7933 13.1453 37.9386 13.3236 37.9386H16.3868C16.6754 37.9386 16.9293 37.7468 17.0087 37.4697L19.8665 27.3967C20.0506 26.7457 19.7018 26.0617 19.0663 25.8312C17.8961 25.403 16.1 24.9826 13.6355 25.0232Z" fill="#4D4D4D"/>
<path d="M41.4175 32.1259C38.8349 32.1259 33.6675 35.3964 31.0849 35.3964C28.5022 35.3964 25.594 33.4163 25.594 33.4163C25.594 33.4163 29.0737 34.0615 31.0829 34.0615C33.0921 34.0615 33.6656 33.3756 33.6656 32.4475C33.6656 30.1865 29.8255 29.8358 27.8841 29.5413C25.9776 28.4795 24.9875 27.6406 21.8294 27.3732C21.81 27.5573 21.781 27.7394 21.7306 27.9235L19.1363 37.0685C22.0755 38.4054 27.1343 40.523 29.7906 40.523C33.6656 40.523 43.9983 35.3557 43.9983 34.0654C43.9983 32.775 42.7079 32.1259 41.4175 32.1259Z" fill="#4D4D4D"/>
<path d="M42.603 10.3989C42.4906 10.0385 42.1186 9.76726 41.7427 9.71688C39.4565 9.41463 36.3236 9.00388 33.8164 11.2591C32.1502 12.7607 31.9293 15.2833 33.2216 17.0658C32.0243 18.2942 31.2648 19.5652 30.7862 20.6831C30.298 19.664 29.7245 18.7514 29.151 17.9668C29.4086 17.3293 29.5443 16.6279 29.5365 15.8878C29.521 14.394 28.9165 12.9293 27.9187 11.9721C24.8613 9.03101 21.027 9.41657 17.9464 9.72657L17.7875 9.74207C17.4117 9.78082 17.092 10.0327 16.968 10.3892C16.8459 10.7457 16.9408 11.1429 17.2121 11.4044C18.5916 12.7297 18.8725 14.1383 19.1709 15.6282C19.4363 16.9534 19.7095 18.3252 20.8275 19.4005C21.8853 20.4177 23.2823 20.9292 24.6463 20.9292C25.8746 20.9292 27.0681 20.501 27.973 19.6659C28.8371 20.9505 29.6469 22.5373 29.9744 24.3024C29.9821 24.3431 30.0054 24.376 30.017 24.4148C30.0325 24.4613 30.0461 24.5039 30.0674 24.5465C30.1023 24.6163 30.1449 24.6783 30.1953 24.7364C30.2205 24.7674 30.2418 24.7984 30.2708 24.8255C30.3367 24.8875 30.4123 24.9359 30.4936 24.9766C30.5169 24.9883 30.5363 25.0057 30.5614 25.0154C30.6758 25.0619 30.7978 25.0948 30.9257 25.0948C30.9838 25.0948 31.0439 25.089 31.1039 25.0793C31.1466 25.0716 31.1776 25.0464 31.2183 25.0328C31.2706 25.0154 31.3171 24.9979 31.3655 24.9747C31.4314 24.9418 31.4895 24.9011 31.5438 24.8546C31.5825 24.8216 31.6174 24.7868 31.6523 24.748C31.6988 24.6938 31.7356 24.6395 31.7704 24.5756C31.7976 24.5271 31.8189 24.4768 31.8363 24.4244C31.8576 24.3605 31.8693 24.2985 31.877 24.2326C31.8809 24.1978 31.8983 24.1687 31.8983 24.1319C31.9003 23.9808 31.9778 21.0222 34.7406 18.2826C35.1533 18.4531 35.6048 18.5674 36.0872 18.5964C36.1783 18.6023 36.2693 18.6061 36.3604 18.6061C37.488 18.6061 38.6079 18.1934 39.4042 17.4785C40.3458 16.6299 40.5996 15.5468 40.8438 14.5006C41.1014 13.3943 41.3456 12.3519 42.3899 11.4122C42.6689 11.1603 42.7154 10.7593 42.603 10.3989Z" fill="#F0A880"/>
</svg>
